<svg width="80" height="80" xmlns="http://www.w3.org/2000/svg" style="vector-effect: non-scaling-stroke;" stroke="null" xml:space="preserve" enable-background="new 0 0 80 80" version="1.1">

 <g stroke="null">
  <title stroke="null">Layer 1</title>
  <g stroke="null" id="svg_1">
   <path stroke="null" id="svg_2" d="m40.04127,0.35632c21.74209,0 39.36823,17.36066 39.36823,38.77527s-17.62614,38.77527 -39.36823,38.77527s-39.36823,-17.36066 -39.36823,-38.77527s17.62614,-38.77527 39.36823,-38.77527z" fill="#FFFFFF"/>
  </g>
  <path transform="rotate(-120.835 30.8971 58.7738)" stroke="#083734" id="svg_8" d="m35.90692,67.12901c0.48498,0 0.96995,0 1.45493,0l-1.45493,0zm2.32788,0c0.48498,0 0.96995,0 1.45493,0l-1.45493,0zm-2.32788,-1.76154c0.25084,-1.23277 -0.50015,-2.70918 -2.0339,-2.66557c-1.77714,-0.09045 -3.58175,-0.01631 -5.34808,-0.1217c-1.71356,-0.53929 -2.65227,-2.26516 -2.41006,-3.87116c-0.28028,-0.46368 -1.48031,-0.33106 -1.97366,-0.83926c-2.40471,-1.26561 -2.72793,-4.65939 -0.71421,-6.37362c0.7054,-0.66817 2.05619,-1.21632 2.95015,-1.04624c0,0.42322 0,0.84644 0,1.26966c-1.84777,0.01898 -3.25144,1.85366 -2.71014,3.46119c0.42317,1.61305 2.30844,2.09704 3.88235,2.11963c1.00571,0.74686 -0.61734,2.03462 0.25669,3.01115c0.5917,1.32577 2.34575,0.89326 3.56868,0.99815c1.75692,0.09733 3.89856,-0.28534 5.17355,1.13268c1.09322,1.09791 0.75749,2.65593 0.81357,4.01732c-0.48497,0 -0.96995,0 -1.45493,0c0,-0.36407 0,-0.72815 0,-1.09222l0,0zm2.30814,-0.4974c0.11455,-1.71737 -0.42408,-3.60598 -2.02643,-4.64027c-1.53195,-1.07156 -3.51772,-0.74228 -5.31239,-0.79791c-1.12381,-0.9173 0.72105,-1.9538 0.52277,-3.05828c0.1252,-1.44704 -0.95374,-2.85832 -2.51101,-3.16913c-0.88966,0.04838 -1.2325,-0.16958 -1.05591,-0.9449c-0.27637,-1.05586 1.3991,-0.30519 1.95368,-0.21262c2.02457,0.66834 3.36745,2.67908 3.0461,4.64835c-0.05226,0.69371 -0.78377,1.68271 0.51345,1.40866c2.52184,-0.12237 4.93298,1.38506 5.82468,3.54667c0.65609,1.52853 0.48976,3.19956 0.51974,4.80906c-0.47894,0 -0.95788,0 -1.43683,0c-0.01261,-0.52987 -0.02523,-1.05976 -0.03784,-1.58962l0,0z" fill="#fff"/>
  <g transform="rotate(-0.581636 42.0241 39.1729)" stroke="null" id="svg_3">
   <path stroke="null" id="svg_4" d="m55.81309,26.61096c0,1.34185 -1.00077,2.43135 -2.23609,2.43135c-1.23408,0 -2.23486,-1.0895 -2.23486,-2.43135c0,-1.34185 1.00077,-2.43135 2.23486,-2.43135c1.23531,0 2.23609,1.0895 2.23609,2.43135zm5.21753,-7.29404c0,-0.45529 -0.3733,-0.81045 -0.79325,-0.81045c-8.10566,0 -12.55327,2.02679 -18.37496,8.33281c-1.32741,1.46869 -2.70148,3.14032 -4.09888,4.9388l-8.82646,0.50603c-0.23331,0.02537 -0.46539,0.17758 -0.60538,0.40589l-5.21753,9.72539c-0.16332,0.30442 -0.11665,0.70764 0.11665,0.98669l1.49072,1.62223c0.13999,0.15087 0.34996,0.22698 0.53661,0.22698c0.06999,0 0.13999,0 0.20875,-0.0267l6.42829,-2.15096l6.54494,7.11646l-1.97945,6.99096c-0.06999,0.27905 0,0.58347 0.18665,0.80911l1.49072,1.6209c0.16332,0.15221 0.34874,0.22831 0.53538,0.22831c0.13999,0 0.25541,-0.02804 0.3733,-0.10014l8.94312,-5.67448c0.20998,-0.15087 0.34874,-0.40589 0.37452,-0.6569l0.46539,-9.59988c1.65404,-1.51943 3.19143,-3.01348 4.54217,-4.45814c5.51592,-6.02696 7.65869,-11.624 7.65869,-20.03291z" fill="#8cc9f0"/>
  </g>
  <path id="svg_12" d="m-442.43129,-258.20643c-3.35791,1.07453 -3.35791,1.41032 -1.07453,1.88043c2.28338,0.47011 5.70845,2.01475 4.09665,0.06716c-1.6118,-1.94759 0.33579,-3.02212 -3.02212,-1.94759z" opacity="NaN" stroke="#000000" fill="none"/>
  <path stroke="#000000" id="svg_20" opacity="NaN" fill="none"/>
  <g id="svg_25">
   <path transform="rotate(0.876565 37.0363 27.641)" id="svg_11" d="m37.03626,27.64103" opacity="NaN" stroke="#000000" fill="none"/>
   <g transform="rotate(0.876565 37.1497 18.4811)" stroke="null" id="svg_14">
    <path transform="rotate(-25.3381 37.1497 18.4811)" stroke="#000000" id="svg_10" d="m27.43779,16.31449c0.54235,10.44462 0,8.07717 -0.16285,8.04939c0.16285,0.02778 18.06037,0.16705 17.89753,0.13927c-2.4992,-1.98237 -10.95816,-0.80563 -11.26303,-1.59574c-0.30488,-0.79011 7.54434,-3.54708 8.39156,-3.65229c1.69445,-0.2104 4.65086,0.44166 4.70031,-0.07319c0.19786,-2.05939 -0.956,-2.90244 -0.42746,-3.19379c1.05709,-0.58271 -8.11055,-5.76443 -5.66832,-2.64936c2.44224,3.11507 -5.95132,-3.30902 -3.97596,0.05111c1.97535,3.36013 -8.5288,-3.25483 -5.68471,-0.20355c2.84409,3.05127 -3.59533,0.89676 -3.69856,1.3991c-0.05163,0.25118 -0.08723,0.52024 -0.1057,0.80811c-0.00923,0.14394 -0.01418,0.29257 -0.01469,0.44602c-0.00026,0.07673 0.00059,0.15466 0.00255,0.23381c0.00099,0.03958 0.00225,0.07945 0.00381,0.11963c0.00078,0.0201 0.00162,0.04027 0.00253,0.06051c0.00046,0.01012 0.00093,0.02026 0.00143,0.03042c0.00025,0.00508 0.0005,0.01017 0.00076,0.01526c0.00012,0.00255 0.00026,0.00509 0.00038,0.00764c0.00007,0.00127 0.00013,0.00255 0.0002,0.00383c0.00007,0.00127 0.00013,0.00255 0.0002,0.00382z" opacity="NaN" fill="none"/>
    <path transform="rotate(-25.3381 39.8194 15.5495)" stroke="#000000" id="svg_13" d="m38.73313,15.22732c0.41814,-1.04406 1.25443,-0.99435 1.88164,-0.49717c0.62721,0.49717 0.04068,1.0008 0.0703,1.48201c0.02962,0.48121 -1.60349,0.50668 -1.67257,0.49717" opacity="NaN" fill="none"/>
   </g>
   <path transform="rotate(0.876565 25.5158 19.5753)" id="svg_15" d="m25.51578,19.57534" opacity="NaN" stroke="#000000" fill="none"/>
   <path transform="rotate(0.876565 30.9925 22.2316)" id="svg_16" d="m27.5419,20.34814c5.23415,-2.20385 5.50069,-1.16198 6.4771,0.2039c0.97641,1.36589 0.51365,3.25892 -4.02905,4.83871" opacity="NaN" stroke="#000000" fill="none"/>
   <ellipse transform="rotate(0.876565 31.1337 21.8676)" ry="0.1662" rx="0.19391" id="svg_23" cy="21.8676" cx="31.13367" stroke="#000000" fill="none"/>
   <path transform="rotate(0.876565 27.5674 23.9187)" id="svg_24" d="m25.1462,19.32021c1.60665,3.04709 4.87534,9.25207 4.84214,9.1967" opacity="NaN" stroke="#000000" fill="none"/>
  </g>
 </g>
</svg>