<svg width="80" height="80" xmlns="http://www.w3.org/2000/svg" version="1.1" enable-background="new 0 0 80 80" xml:space="preserve" stroke="null">
 <g stroke="null">
  <title stroke="null">Layer 1</title>
  <path fill="none" stroke="#000000" opacity="NaN" d="m-442.43129,-258.20643c-3.35791,1.07453 -3.35791,1.41032 -1.07453,1.88043c2.28338,0.47011 5.70845,2.01475 4.09665,0.06716c-1.6118,-1.94759 0.33579,-3.02212 -3.02212,-1.94759z" id="svg_12"/>
  <path fill="none" opacity="NaN" id="svg_20" stroke="#000000"/>
  <g stroke="null" id="svg_5">
   <g stroke="null" id="svg_1">
    <path stroke="null" fill="#FFFFFF" d="m40.12501,0.22473c21.74209,0 39.36823,17.97628 39.36823,40.15027s-17.62614,40.15027 -39.36823,40.15027s-39.36823,-17.97628 -39.36823,-40.15027s17.62614,-40.15027 39.36823,-40.15027z" id="svg_2"/>
   </g>
   <path stroke="#005ef7" stroke-opacity="0.8" fill="#fff" d="m35.58709,51.82508c-0.24858,-0.43119 -0.49716,-0.86238 -0.74575,-1.29357l0.74575,1.29357zm-1.1932,-2.06971c-0.24858,-0.43119 -0.49716,-0.86238 -0.74575,-1.29357l0.74575,1.29357zm-0.31935,3.00463c-1.18709,0.43126 -2.06987,1.88256 -1.24627,3.22306c0.83324,1.62805 1.82188,3.19317 2.63675,4.81954c0.41526,1.80974 -0.58551,3.56034 -2.08864,4.19737c-0.25448,0.49529 0.4745,1.49184 0.29101,2.2002c0.14586,2.80973 -2.60252,4.89833 -5.10661,4.01776c-0.93529,-0.27254 -2.09833,-1.18259 -2.4105,-2.06768c0.3634,-0.22462 0.72679,-0.44924 1.09019,-0.67386c0.9634,1.63277 3.25822,1.90702 4.36107,0.57257c1.16814,-1.23235 0.61739,-3.16541 -0.16995,-4.57676c0.12579,-1.29056 2.06345,-0.53099 2.45394,-1.82637c0.83508,-1.22972 -0.43536,-2.55969 -0.97213,-3.70266c-0.81697,-1.61373 -2.24328,-3.31475 -1.67922,-5.20094c0.38237,-1.55469 1.89224,-2.0831 3.03245,-2.85551c0.24858,0.43118 0.49716,0.86238 0.74575,1.29357c-0.31261,0.19323 -0.62522,0.38646 -0.93783,0.57969l0,0l0,0.00001zm-1.61017,-1.78816c-1.53333,0.80964 -2.87889,2.2909 -2.94567,4.26448c-0.13486,1.93077 1.16571,3.52155 2.03784,5.14671c-0.21161,1.48603 -2.04721,0.39588 -2.89394,1.15837c-1.30667,0.65669 -1.96543,2.365 -1.4341,3.91452c0.49755,0.76532 0.48613,1.18581 -0.27011,1.4403c-0.76495,0.80611 -0.97918,-1.08196 -1.18396,-1.62416c-0.46386,-2.15475 0.57434,-4.41589 2.42996,-5.17535c0.62244,-0.32172 1.84659,-0.19624 0.94636,-1.20414c-1.39769,-2.17721 -1.33921,-5.121 0.0598,-7.06107c0.97618,-1.39458 2.49626,-2.13359 3.86288,-3.01448c0.24549,0.42582 0.49098,0.85165 0.73647,1.27748c-0.44851,0.29244 -0.89703,0.58489 -1.34553,0.87732l0,0l0,0.00001z" id="svg_8"/>
   <g stroke="null" transform="matrix(0.999949 -0.0105113 0.0101513 1.03541 -0.879134 -2.26558)" stroke-opacity="0.7" id="svg_3">
    <path stroke="#1136bf" fill="#9ACEE6" d="m56.35529,29.09392c0,1.34185 -1.00077,2.43135 -2.23609,2.43135c-1.23408,0 -2.23486,-1.0895 -2.23486,-2.43135c0,-1.34185 1.00077,-2.43135 2.23486,-2.43135c1.23531,0 2.23609,1.0895 2.23609,2.43135zm5.21753,-7.29404c0,-0.45529 -0.3733,-0.81045 -0.79325,-0.81045c-8.10566,0 -12.55327,2.02679 -18.37496,8.33281c-1.32741,1.46869 -2.70148,3.14032 -4.09888,4.9388l-8.82646,0.50603c-0.23331,0.02537 -0.46539,0.17758 -0.60538,0.40589l-5.21753,9.72539c-0.16332,0.30442 -0.11665,0.70764 0.11665,0.98669l1.49072,1.62223c0.13999,0.15087 0.34996,0.22698 0.53661,0.22698c0.06999,0 0.13999,0 0.20875,-0.0267l6.42829,-2.15096l6.54494,7.11646l-1.97945,6.99096c-0.06999,0.27905 0,0.58347 0.18665,0.80911l1.49072,1.6209c0.16332,0.15221 0.34874,0.22831 0.53538,0.22831c0.13999,0 0.25541,-0.02804 0.3733,-0.10014l8.94312,-5.67448c0.20998,-0.15087 0.34874,-0.40589 0.37452,-0.6569l0.46539,-9.59988c1.65404,-1.51943 3.19143,-3.01348 4.54217,-4.45814c5.51592,-6.02696 7.65869,-11.624 7.65869,-20.03291l0.00001,0z" id="svg_4"/>
   </g>
   <g stroke="#1136bf" fill-opacity="0.9" fill="#9ACEE6" id="svg_25">
    <path stroke="#000000" fill="#ff0000" opacity="NaN" d="m37.12,28.47698" id="svg_11"/>
    <g stroke="null" id="svg_14" transform="matrix(0.999883 0.0158408 -0.0152984 1.03534 -0.196566 -3.29564)">
     <path stroke="#000000" transform="rotate(-25.3381 37.7549 20.9494)" fill="#ff0000" opacity="NaN" d="m28.043,18.78285c0.54235,10.44462 0,8.07717 -0.16285,8.04939c0.16285,0.02778 18.06037,0.16705 17.89753,0.13927c-2.4992,-1.98237 -10.95816,-0.80563 -11.26303,-1.59574c-0.30488,-0.79011 7.54434,-3.54708 8.39156,-3.65229c1.69445,-0.2104 4.65086,0.44166 4.70031,-0.07319c0.19786,-2.05939 -0.956,-2.90244 -0.42746,-3.19379c1.05709,-0.58271 -8.11055,-5.76443 -5.66832,-2.64936c2.44224,3.11507 -5.95132,-3.30902 -3.97596,0.05111c1.97535,3.36013 -8.5288,-3.25483 -5.68471,-0.20355c2.84409,3.05127 -3.59533,0.89676 -3.69856,1.3991c-0.05163,0.25118 -0.08723,0.52024 -0.1057,0.80811c-0.00923,0.14394 -0.01418,0.29257 -0.01469,0.44602c-0.00026,0.07673 0.00059,0.15466 0.00255,0.23381c0.00099,0.03958 0.00225,0.07945 0.00381,0.11963c0.00078,0.0201 0.00162,0.04027 0.00253,0.06051c0.00046,0.01012 0.00093,0.02026 0.00143,0.03042c0.00025,0.00508 0.0005,0.01017 0.00076,0.01526c0.00012,0.00255 0.00026,0.00509 0.00038,0.00764c0.00007,0.00127 0.00013,0.00255 0.0002,0.00383c0.00007,0.00127 0.00013,0.00255 0.0002,0.00382l0.00002,0z" id="svg_10"/>
     <path stroke="#000000" transform="rotate(-25.3381 40.4246 18.0179)" fill="#ff0000" opacity="NaN" d="m39.33834,17.69568c0.41814,-1.04406 1.25443,-0.99435 1.88164,-0.49717c0.62721,0.49717 0.04068,1.0008 0.0703,1.48201c0.02962,0.48121 -1.60349,0.50668 -1.67257,0.49717" id="svg_13"/>
    </g>
    <path stroke="#000000" fill="#ff0000" opacity="NaN" d="m25.59951,20.12527" id="svg_15"/>
    <path stroke="#000000" fill="#ff0000" opacity="NaN" d="m27.65485,20.87104c5.26725,-2.19882 5.51782,-1.11591 6.47322,0.31371c0.9554,1.42963 0.46373,3.38223 -4.1026,4.94588" id="svg_16"/>
    <ellipse stroke="#000000" transform="matrix(0.999883 0.0158408 -0.0152984 1.03534 -0.145462 -3.19993)" fill="#ff0000" cx="31.73888" cy="24.33595" id="svg_23" rx="0.19391" ry="0.1662"/>
    <path stroke="#000000" fill="#ff0000" opacity="NaN" d="m25.30057,19.8233c1.55985,3.18022 4.73323,9.65626 4.70088,9.59841" id="svg_24"/>
   </g>
  </g>
 </g>

</svg>